M48
; DRILL file {KiCad 7.0.1} date Fri Oct 18 11:51:31 2024
; FORMAT={-:-/ absolute / inch / decimal}
; #@! TF.CreationDate,2024-10-18T11:51:31+03:00
; #@! TF.GenerationSoftware,Kicad,Pcbnew,7.0.1
; #@! TF.FileFunction,Plated,1,2,PTH
FMAT,2
INCH
; #@! TA.AperFunction,Plated,PTH,ComponentDrill
T1C0.0079
; #@! TA.AperFunction,Plated,PTH,ComponentDrill
T2C0.0118
; #@! TA.AperFunction,Plated,PTH,ViaDrill
T3C0.0157
; #@! TA.AperFunction,Plated,PTH,ComponentDrill
T4C0.0197
; #@! TA.AperFunction,Plated,PTH,ComponentDrill
T5C0.0315
; #@! TA.AperFunction,Plated,PTH,ComponentDrill
T6C0.0354
; #@! TA.AperFunction,Plated,PTH,ComponentDrill
T7C0.0374
; #@! TA.AperFunction,Plated,PTH,ComponentDrill
T8C0.0394
; #@! TA.AperFunction,Plated,PTH,ComponentDrill
T9C0.0433
; #@! TA.AperFunction,Plated,PTH,ComponentDrill
T10C0.0630
; #@! TA.AperFunction,Plated,PTH,ComponentDrill
T11C0.0669
; #@! TA.AperFunction,Plated,PTH,ComponentDrill
T12C0.1260
%
G90
G05
T1
X2.9344Y-4.0558
X2.9344Y-4.1158
X2.9645Y-4.0858
X2.9645Y-4.1459
X2.9945Y-4.0558
X2.9945Y-4.1158
X3.0245Y-4.0258
X3.0245Y-4.0858
X3.0245Y-4.1459
X3.0545Y-4.0558
X3.0545Y-4.1158
T2
X2.9645Y-4.0258
T3
X2.6752Y-4.5059
X2.7461Y-4.6949
X2.8327Y-3.6161
X2.8878Y-3.5689
X2.9193Y-4.7913
X2.98Y-4.49
X3.0453Y-3.622
X3.0512Y-4.7126
X3.2106Y-4.5157
X3.28Y-4.52
X3.3622Y-2.8543
X3.4114Y-3.1476
X3.42Y-2.7146
X3.4508Y-3.6043
X3.4567Y-4.3858
X3.5Y-3.23
X3.5Y-3.57
X3.502Y-4.0472
X3.5531Y-4.3819
X3.6339Y-4.3976
X3.64Y-3.6
X3.6516Y-3.5177
X3.66Y-3.22
X3.74Y-4.42
X3.9429Y-3.7264
X4.0118Y-4.3465
X4.39Y-4.26
X4.4Y-3.86
X4.4Y-4.22
X4.41Y-3.9
X4.41Y-4.31
X4.4252Y-4.8268
X4.44Y-3.86
X4.44Y-3.95
X4.44Y-4.22
X4.44Y-4.26
X4.45Y-3.9
X4.45Y-4.31
X4.45Y-4.35
X4.48Y-3.95
X4.48Y-4.22
X4.49Y-3.86
X4.49Y-3.9
X4.49Y-4.26
X4.5Y-4.31
X4.5Y-4.35
X4.52Y-3.95
X4.53Y-3.9
X4.54Y-3.86
X4.57Y-3.9
X4.57Y-3.95
X4.57Y-4.23
X4.59Y-3.86
X4.6162Y-3.2362
X4.66Y-3.3327
X4.67Y-3.92
X4.6732Y-4.81
X4.71Y-4.29
X4.74Y-4.33
X4.74Y-4.37
X4.79Y-4.06
X4.79Y-4.17
X4.8158Y-4.56
X4.84Y-4.02
X4.8504Y-3.5748
X4.88Y-4.84
X4.8868Y-2.4587
X4.8957Y-3.8209
X4.96Y-4.6
X4.9921Y-2.3701
X5.01Y-3.74
X5.01Y-4.79
X5.05Y-3.74
X5.0531Y-3.9823
X5.07Y-4.47
X5.1Y-3.74
X5.1Y-4.3
X5.14Y-3.74
X5.14Y-4.56
X5.1516Y-3.9488
X5.1594Y-3.5709
X5.2Y-4.58
X5.2Y-4.63
X5.24Y-4.49
X5.24Y-4.53
X5.24Y-4.58
X5.24Y-4.63
X5.24Y-4.67
X5.25Y-3.55
X5.28Y-4.49
X5.28Y-4.53
X5.28Y-4.58
X5.28Y-4.63
X5.28Y-4.68
X5.31Y-3.8
X5.32Y-4.53
X5.32Y-4.58
X5.32Y-4.63
X5.33Y-3.76
X5.35Y-3.8
X5.35Y-3.84
X5.36Y-4.53
X5.36Y-4.58
X5.36Y-4.63
X5.39Y-3.8
X5.39Y-3.84
X5.39Y-4.78
X5.39Y-4.9
X5.39Y-4.95
X5.39Y-5.0
X5.3957Y-3.6142
X5.4Y-4.53
X5.4Y-4.58
X5.4Y-4.63
X5.44Y-4.58
X5.44Y-4.63
X5.44Y-4.9
X5.44Y-4.95
X5.44Y-5.0
X5.45Y-4.77
X5.4724Y-3.3071
X5.4882Y-2.9724
X5.5Y-4.9
X5.5Y-4.95
X5.5Y-5.0
X5.5118Y-2.3169
X5.54Y-4.72
X5.5413Y-2.5315
X5.55Y-4.85
X5.55Y-4.9
X5.55Y-4.95
X5.55Y-5.0
X5.57Y-3.31
X5.62Y-4.56
X5.67Y-4.93
X5.68Y-4.67
X5.689Y-3.939
X5.8386Y-3.0965
X5.88Y-4.66
T4
X2.4488Y-2.3346
X2.4765Y-2.2678
X2.4765Y-2.4015
X2.5433Y-2.2402
X2.5433Y-2.4291
X2.6101Y-2.2678
X2.6101Y-2.4015
X2.6378Y-2.3346
T5
X4.8169Y-3.0413
X4.9665Y-3.0413
T6
X2.822Y-2.3154
X2.822Y-2.4154
X2.822Y-2.5154
X2.822Y-2.6154
X2.822Y-2.7154
X2.822Y-2.8154
X3.6831Y-2.4154
X3.6831Y-2.5154
X3.6831Y-2.6154
X3.6831Y-2.7154
X3.6831Y-2.8154
X3.6831Y-2.9154
T7
X3.8114Y-4.9291
X3.9098Y-4.9291
X4.0083Y-4.9291
X4.1067Y-4.9291
X4.2051Y-4.9291
X4.3035Y-4.9291
X4.578Y-4.9134
X4.6764Y-4.9134
X4.7748Y-4.9134
X4.9931Y-4.91
X5.0916Y-4.91
X5.19Y-4.91
X5.2884Y-4.91
T8
X3.7598Y-3.7252
X3.7598Y-3.8252
X3.7598Y-3.9252
X3.7598Y-4.0252
X3.7598Y-4.1252
X3.7598Y-4.2252
X3.99Y-2.9868
X3.99Y-3.1836
X4.332Y-3.6535
X4.5288Y-3.6535
T9
X3.11Y-3.07
X3.51Y-3.07
T10
X4.4469Y-2.9213
X4.4469Y-3.1575
T11
X5.6811Y-2.7756
X5.6811Y-2.9724
X5.6813Y-2.3344
X5.6813Y-2.5313
T12
X2.5433Y-2.3346
T0
M30
