M48
; DRILL file {KiCad 7.0.2} date Fri Oct 18 19:43:00 2024
; FORMAT={-:-/ absolute / metric / decimal}
; #@! TF.CreationDate,2024-10-18T19:43:00+03:00
; #@! TF.GenerationSoftware,Kicad,Pcbnew,7.0.2
; #@! TF.FileFunction,MixedPlating,1,2
FMAT,2
METRIC
; #@! TA.AperFunction,Plated,PTH,ComponentDrill
T1C0.200
; #@! TA.AperFunction,Plated,PTH,ComponentDrill
T2C0.300
; #@! TA.AperFunction,Plated,PTH,ViaDrill
T3C0.400
; #@! TA.AperFunction,Plated,PTH,ComponentDrill
T4C0.500
; #@! TA.AperFunction,Plated,PTH,ComponentDrill
T5C0.800
; #@! TA.AperFunction,Plated,PTH,ComponentDrill
T6C0.900
; #@! TA.AperFunction,Plated,PTH,ComponentDrill
T7C0.950
; #@! TA.AperFunction,Plated,PTH,ComponentDrill
T8C1.000
; #@! TA.AperFunction,Plated,PTH,ComponentDrill
T9C1.100
; #@! TA.AperFunction,Plated,PTH,ComponentDrill
T10C1.600
; #@! TA.AperFunction,Plated,PTH,ComponentDrill
T11C1.700
; #@! TA.AperFunction,Plated,PTH,ComponentDrill
T12C3.200
%
G90
G05
T1
X74.535Y-103.017
X74.535Y-104.542
X75.297Y-103.78
X75.297Y-105.305
X76.06Y-103.017
X76.06Y-104.542
X76.822Y-102.255
X76.822Y-103.78
X76.822Y-105.305
X77.585Y-103.017
X77.585Y-104.542
T2
X75.297Y-102.255
T3
X67.95Y-114.45
X69.75Y-119.25
X71.95Y-91.85
X73.35Y-90.65
X74.15Y-121.7
X75.692Y-114.046
X77.35Y-92.0
X77.5Y-119.7
X81.55Y-114.7
X83.312Y-114.808
X85.4Y-72.5
X86.65Y-79.95
X86.868Y-68.95
X87.65Y-91.55
X87.8Y-111.4
X88.9Y-82.042
X88.9Y-90.678
X88.95Y-102.8
X90.25Y-111.3
X92.3Y-111.7
X92.456Y-91.44
X92.75Y-89.35
X92.964Y-81.788
X94.996Y-112.268
X100.15Y-94.65
X101.9Y-110.4
X111.506Y-108.204
X111.76Y-98.044
X111.76Y-107.188
X112.014Y-99.06
X112.014Y-109.474
X112.4Y-122.6
X112.776Y-98.044
X112.776Y-100.33
X112.776Y-107.188
X112.776Y-108.204
X113.03Y-99.06
X113.03Y-109.474
X113.03Y-110.49
X113.792Y-100.33
X113.792Y-107.188
X114.046Y-98.044
X114.046Y-99.06
X114.046Y-108.204
X114.3Y-109.474
X114.3Y-110.49
X114.808Y-100.33
X115.062Y-99.06
X115.3Y-60.4
X115.316Y-98.044
X115.9Y-64.0
X115.9Y-65.3
X115.9Y-66.3
X116.078Y-99.06
X116.078Y-100.33
X116.078Y-107.442
X116.586Y-98.044
X118.364Y-84.65
X118.618Y-99.568
X118.7Y-122.174
X119.5Y-59.0
X119.634Y-108.966
X120.396Y-109.982
X120.396Y-110.998
X121.666Y-103.124
X121.666Y-105.918
X122.321Y-115.824
X122.936Y-102.108
X123.2Y-90.8
X123.952Y-122.936
X124.35Y-97.05
X125.984Y-116.84
X127.254Y-94.996
X127.254Y-121.666
X127.7Y-61.6
X128.27Y-94.996
X128.35Y-101.15
X128.778Y-113.538
X129.54Y-94.996
X129.54Y-109.22
X130.556Y-94.996
X130.556Y-115.824
X130.85Y-100.3
X131.05Y-90.7
X132.08Y-116.332
X132.08Y-117.602
X133.096Y-114.046
X133.096Y-115.062
X133.096Y-116.332
X133.096Y-117.602
X133.096Y-118.618
X133.35Y-90.17
X134.112Y-114.046
X134.112Y-115.062
X134.112Y-116.332
X134.112Y-117.602
X134.112Y-118.872
X134.874Y-96.52
X135.128Y-115.062
X135.128Y-116.332
X135.128Y-117.602
X135.382Y-95.504
X135.89Y-96.52
X135.89Y-97.536
X136.144Y-115.062
X136.144Y-116.332
X136.144Y-117.602
X136.906Y-96.52
X136.906Y-97.536
X136.906Y-121.412
X136.906Y-124.46
X136.906Y-125.73
X136.906Y-127.0
X137.05Y-91.8
X137.16Y-115.062
X137.16Y-116.332
X137.16Y-117.602
X138.176Y-116.332
X138.176Y-117.602
X138.176Y-124.46
X138.176Y-125.73
X138.176Y-127.0
X138.43Y-121.158
X139.0Y-84.0
X139.4Y-75.5
X139.7Y-124.46
X139.7Y-125.73
X139.7Y-127.0
X140.716Y-119.888
X140.75Y-64.3
X140.97Y-123.19
X140.97Y-124.46
X140.97Y-125.73
X140.97Y-127.0
X141.478Y-84.074
X142.748Y-115.824
X144.018Y-125.222
X144.272Y-118.618
X144.5Y-100.05
X148.3Y-78.65
X149.352Y-118.364
T4
X62.2Y-59.3
X62.903Y-57.603
X62.903Y-60.997
X64.6Y-56.9
X64.6Y-61.7
X66.297Y-57.603
X66.297Y-60.997
X67.0Y-59.3
T5
X122.35Y-77.25
X126.15Y-77.25
T6
X71.68Y-58.81
X71.68Y-61.35
X71.68Y-63.89
X71.68Y-66.43
X71.68Y-68.97
X71.68Y-71.51
X93.55Y-61.35
X93.55Y-63.89
X93.55Y-66.43
X93.55Y-68.97
X93.55Y-71.51
X93.55Y-74.05
T7
X96.81Y-125.2
X99.31Y-125.2
X101.81Y-125.2
X104.31Y-125.2
X106.81Y-125.2
X109.31Y-125.2
X116.28Y-124.8
X118.78Y-124.8
X121.28Y-124.8
X126.826Y-124.714
X129.326Y-124.714
X131.826Y-124.714
X134.326Y-124.714
T8
X78.068Y-61.3
X83.068Y-61.3
X95.5Y-94.62
X95.5Y-97.16
X95.5Y-99.7
X95.5Y-102.24
X95.5Y-104.78
X95.5Y-107.32
X120.4Y-64.3
X125.4Y-64.3
T9
X78.994Y-77.978
X89.154Y-77.978
T10
X112.2Y-72.1
X112.2Y-78.1
T11
X144.3Y-70.5
X144.3Y-75.5
X144.305Y-59.295
X144.305Y-64.295
T12
X64.6Y-59.3
T0
M30
