%TF.GenerationSoftware,KiCad,Pcbnew,7.0.2*%
%TF.CreationDate,2024-10-18T19:43:08+03:00*%
%TF.ProjectId,POWER  WATER CIRCUIT,504f5745-5220-4205-9741-544552204349,rev?*%
%TF.SameCoordinates,Original*%
%TF.FileFunction,Paste,Top*%
%TF.FilePolarity,Positive*%
%FSLAX46Y46*%
G04 Gerber Fmt 4.6, Leading zero omitted, Abs format (unit mm)*
G04 Created by KiCad (PCBNEW 7.0.2) date 2024-10-18 19:43:08*
%MOMM*%
%LPD*%
G01*
G04 APERTURE LIST*
G04 Aperture macros list*
%AMRoundRect*
0 Rectangle with rounded corners*
0 $1 Rounding radius*
0 $2 $3 $4 $5 $6 $7 $8 $9 X,Y pos of 4 corners*
0 Add a 4 corners polygon primitive as box body*
4,1,4,$2,$3,$4,$5,$6,$7,$8,$9,$2,$3,0*
0 Add four circle primitives for the rounded corners*
1,1,$1+$1,$2,$3*
1,1,$1+$1,$4,$5*
1,1,$1+$1,$6,$7*
1,1,$1+$1,$8,$9*
0 Add four rect primitives between the rounded corners*
20,1,$1+$1,$2,$3,$4,$5,0*
20,1,$1+$1,$4,$5,$6,$7,0*
20,1,$1+$1,$6,$7,$8,$9,0*
20,1,$1+$1,$8,$9,$2,$3,0*%
G04 Aperture macros list end*
%ADD10C,0.010000*%
%ADD11RoundRect,0.150000X0.150000X-0.587500X0.150000X0.587500X-0.150000X0.587500X-0.150000X-0.587500X0*%
%ADD12RoundRect,0.150000X-0.512500X-0.150000X0.512500X-0.150000X0.512500X0.150000X-0.512500X0.150000X0*%
%ADD13RoundRect,0.250000X-0.350000X-0.450000X0.350000X-0.450000X0.350000X0.450000X-0.350000X0.450000X0*%
%ADD14RoundRect,0.150000X-0.150000X0.587500X-0.150000X-0.587500X0.150000X-0.587500X0.150000X0.587500X0*%
%ADD15RoundRect,0.250000X-0.325000X-0.450000X0.325000X-0.450000X0.325000X0.450000X-0.325000X0.450000X0*%
%ADD16RoundRect,0.250001X0.924999X-0.499999X0.924999X0.499999X-0.924999X0.499999X-0.924999X-0.499999X0*%
%ADD17RoundRect,0.250000X-0.900000X1.500000X-0.900000X-1.500000X0.900000X-1.500000X0.900000X1.500000X0*%
%ADD18RoundRect,0.075000X-0.225000X0.910000X-0.225000X-0.910000X0.225000X-0.910000X0.225000X0.910000X0*%
%ADD19R,1.700000X0.900000*%
%ADD20RoundRect,0.250000X0.450000X-0.350000X0.450000X0.350000X-0.450000X0.350000X-0.450000X-0.350000X0*%
%ADD21R,0.600000X1.250000*%
%ADD22RoundRect,0.250000X0.337500X0.475000X-0.337500X0.475000X-0.337500X-0.475000X0.337500X-0.475000X0*%
%ADD23R,2.200000X1.500000*%
%ADD24RoundRect,0.250000X2.050000X0.300000X-2.050000X0.300000X-2.050000X-0.300000X2.050000X-0.300000X0*%
%ADD25RoundRect,0.250000X2.025000X2.375000X-2.025000X2.375000X-2.025000X-2.375000X2.025000X-2.375000X0*%
%ADD26RoundRect,0.250000X-0.450000X0.350000X-0.450000X-0.350000X0.450000X-0.350000X0.450000X0.350000X0*%
%ADD27RoundRect,0.250000X0.475000X-0.337500X0.475000X0.337500X-0.475000X0.337500X-0.475000X-0.337500X0*%
%ADD28RoundRect,0.250000X0.325000X0.450000X-0.325000X0.450000X-0.325000X-0.450000X0.325000X-0.450000X0*%
%ADD29RoundRect,0.250000X-1.500000X-0.900000X1.500000X-0.900000X1.500000X0.900000X-1.500000X0.900000X0*%
%ADD30RoundRect,0.250000X0.350000X0.450000X-0.350000X0.450000X-0.350000X-0.450000X0.350000X-0.450000X0*%
%ADD31RoundRect,0.250000X-0.337500X-0.475000X0.337500X-0.475000X0.337500X0.475000X-0.337500X0.475000X0*%
%ADD32R,2.000000X1.500000*%
%ADD33R,2.000000X3.800000*%
%ADD34R,0.900000X1.500000*%
%ADD35R,1.500000X0.900000*%
%ADD36R,1.050000X1.050000*%
%ADD37RoundRect,0.250000X-0.450000X0.325000X-0.450000X-0.325000X0.450000X-0.325000X0.450000X0.325000X0*%
%ADD38RoundRect,0.150000X-0.587500X-0.150000X0.587500X-0.150000X0.587500X0.150000X-0.587500X0.150000X0*%
%ADD39RoundRect,0.250000X-0.475000X0.337500X-0.475000X-0.337500X0.475000X-0.337500X0.475000X0.337500X0*%
%ADD40RoundRect,0.050000X0.150000X-0.730000X0.150000X0.730000X-0.150000X0.730000X-0.150000X-0.730000X0*%
G04 APERTURE END LIST*
%TO.C,U2*%
D10*
X140870000Y-97695000D02*
X139230000Y-97695000D01*
X139230000Y-96405000D01*
X140870000Y-96405000D01*
X140870000Y-97695000D01*
G36*
X140870000Y-97695000D02*
G01*
X139230000Y-97695000D01*
X139230000Y-96405000D01*
X140870000Y-96405000D01*
X140870000Y-97695000D01*
G37*
%TD*%
D11*
%TO.C,Q5*%
X93450000Y-120900000D03*
X95350000Y-120900000D03*
X94400000Y-119025000D03*
%TD*%
D12*
%TO.C,U6*%
X143896500Y-114874000D03*
X143896500Y-115824000D03*
X143896500Y-116774000D03*
X146171500Y-116774000D03*
X146171500Y-115824000D03*
X146171500Y-114874000D03*
%TD*%
D13*
%TO.C,R17*%
X87350000Y-122300000D03*
X89350000Y-122300000D03*
%TD*%
D14*
%TO.C,Q4*%
X83750000Y-119525000D03*
X81850000Y-119525000D03*
X82800000Y-121400000D03*
%TD*%
D11*
%TO.C,Q3*%
X121050000Y-119837500D03*
X122000000Y-117962500D03*
X122950000Y-119837500D03*
%TD*%
D15*
%TO.C,D1*%
X136575000Y-106200000D03*
X138625000Y-106200000D03*
%TD*%
D16*
%TO.C,C9*%
X106950000Y-114925000D03*
X106950000Y-111675000D03*
%TD*%
D17*
%TO.C,D12*%
X89154000Y-69182000D03*
X89154000Y-74582000D03*
%TD*%
D18*
%TO.C,U2*%
X141955000Y-94575000D03*
X140685000Y-94575000D03*
X139415000Y-94575000D03*
X138145000Y-94575000D03*
X138145000Y-99525000D03*
X139415000Y-99525000D03*
X140685000Y-99525000D03*
X141955000Y-99525000D03*
%TD*%
D13*
%TO.C,R2*%
X140850000Y-103200000D03*
X142850000Y-103200000D03*
%TD*%
D19*
%TO.C,SW1*%
X70450000Y-122300000D03*
X70450000Y-125700000D03*
%TD*%
D20*
%TO.C,R7*%
X133550000Y-94150000D03*
X133550000Y-92150000D03*
%TD*%
D21*
%TO.C,IC1*%
X129400000Y-103900000D03*
X128450000Y-103900000D03*
X127500000Y-103900000D03*
X127500000Y-106400000D03*
X128450000Y-106400000D03*
X129400000Y-106400000D03*
%TD*%
D22*
%TO.C,C10*%
X75387500Y-125650000D03*
X73312500Y-125650000D03*
%TD*%
D23*
%TO.C,L2*%
X136652000Y-113132000D03*
X136652000Y-119532000D03*
%TD*%
D24*
%TO.C,U1*%
X111650000Y-65500000D03*
X111650000Y-63800000D03*
X111650000Y-62100000D03*
D25*
X104925000Y-64875000D03*
X104925000Y-59325000D03*
X100075000Y-64875000D03*
X100075000Y-59325000D03*
D24*
X111650000Y-60400000D03*
X111650000Y-58700000D03*
%TD*%
D13*
%TO.C,R5*%
X123400000Y-56900000D03*
X125400000Y-56900000D03*
%TD*%
D26*
%TO.C,R11*%
X141732000Y-85550000D03*
X141732000Y-87550000D03*
%TD*%
D27*
%TO.C,C8*%
X110900000Y-114037500D03*
X110900000Y-111962500D03*
%TD*%
D20*
%TO.C,R21*%
X79450000Y-90450000D03*
X79450000Y-88450000D03*
%TD*%
D28*
%TO.C,D2*%
X142925000Y-106100000D03*
X140875000Y-106100000D03*
%TD*%
D13*
%TO.C,R22*%
X142764000Y-120650000D03*
X144764000Y-120650000D03*
%TD*%
D27*
%TO.C,C5*%
X133350000Y-99887500D03*
X133350000Y-97812500D03*
%TD*%
D13*
%TO.C,R6*%
X132800000Y-104050000D03*
X134800000Y-104050000D03*
%TD*%
D29*
%TO.C,D3*%
X130850000Y-64550000D03*
X136250000Y-64550000D03*
%TD*%
D27*
%TO.C,C2*%
X145900000Y-97887500D03*
X145900000Y-95812500D03*
%TD*%
%TO.C,C3*%
X121666000Y-107971500D03*
X121666000Y-105896500D03*
%TD*%
D20*
%TO.C,R16*%
X118950000Y-117800000D03*
X118950000Y-115800000D03*
%TD*%
D30*
%TO.C,R1*%
X138650000Y-103250000D03*
X136650000Y-103250000D03*
%TD*%
D31*
%TO.C,22uF1*%
X142218500Y-118364000D03*
X144293500Y-118364000D03*
%TD*%
D29*
%TO.C,D5*%
X130850000Y-70800000D03*
X136250000Y-70800000D03*
%TD*%
D26*
%TO.C,R9*%
X125350000Y-84600000D03*
X125350000Y-86600000D03*
%TD*%
D14*
%TO.C,Q6*%
X81650000Y-83425000D03*
X79750000Y-83425000D03*
X80700000Y-85300000D03*
%TD*%
D32*
%TO.C,U3*%
X116000000Y-107500000D03*
X116000000Y-105200000D03*
D33*
X109700000Y-105200000D03*
D32*
X116000000Y-102900000D03*
%TD*%
D20*
%TO.C,R12*%
X145288000Y-87614000D03*
X145288000Y-85614000D03*
%TD*%
D13*
%TO.C,R15*%
X101500000Y-119600000D03*
X103500000Y-119600000D03*
%TD*%
D34*
%TO.C,U4*%
X68720000Y-111850000D03*
X69990000Y-111850000D03*
X71260000Y-111850000D03*
X72530000Y-111850000D03*
X73800000Y-111850000D03*
X75070000Y-111850000D03*
X76340000Y-111850000D03*
X77610000Y-111850000D03*
X78880000Y-111850000D03*
X80150000Y-111850000D03*
X81420000Y-111850000D03*
X82690000Y-111850000D03*
X83960000Y-111850000D03*
X85230000Y-111850000D03*
D35*
X86480000Y-108810000D03*
X86480000Y-107540000D03*
X86480000Y-106270000D03*
X86480000Y-105000000D03*
X86480000Y-103730000D03*
X86480000Y-102460000D03*
X86480000Y-101190000D03*
X86480000Y-99920000D03*
X86480000Y-98650000D03*
X86480000Y-97380000D03*
D34*
X85230000Y-94350000D03*
X83960000Y-94350000D03*
X82690000Y-94350000D03*
X81420000Y-94350000D03*
X80150000Y-94350000D03*
X78880000Y-94350000D03*
X77610000Y-94350000D03*
X76340000Y-94350000D03*
X75070000Y-94350000D03*
X73800000Y-94350000D03*
X72530000Y-94350000D03*
X71260000Y-94350000D03*
X69990000Y-94350000D03*
X68720000Y-94350000D03*
D36*
X74535000Y-105305000D03*
X76060000Y-105305000D03*
X77585000Y-105305000D03*
X74535000Y-103780000D03*
X76060000Y-103780000D03*
X77585000Y-103780000D03*
X74535000Y-102255000D03*
X76060000Y-102255000D03*
X77585000Y-102255000D03*
%TD*%
D20*
%TO.C,R23*%
X148082000Y-120634000D03*
X148082000Y-118634000D03*
%TD*%
D37*
%TO.C,D9*%
X75450000Y-88575000D03*
X75450000Y-90625000D03*
%TD*%
%TO.C,D10*%
X141478000Y-114037000D03*
X141478000Y-116087000D03*
%TD*%
%TO.C,D8*%
X69800000Y-88012500D03*
X69800000Y-90062500D03*
%TD*%
D38*
%TO.C,Q2*%
X109900000Y-118050000D03*
X109900000Y-119950000D03*
X111775000Y-119000000D03*
%TD*%
D13*
%TO.C,R4*%
X118750000Y-56850000D03*
X120750000Y-56850000D03*
%TD*%
D39*
%TO.C,C11*%
X148336000Y-114786500D03*
X148336000Y-116861500D03*
%TD*%
D30*
%TO.C,R18*%
X89150000Y-118400000D03*
X87150000Y-118400000D03*
%TD*%
D17*
%TO.C,D4*%
X102600000Y-72400000D03*
X102600000Y-77800000D03*
%TD*%
D26*
%TO.C,R8*%
X138900000Y-85600000D03*
X138900000Y-87600000D03*
%TD*%
D20*
%TO.C,R20*%
X75450000Y-85500000D03*
X75450000Y-83500000D03*
%TD*%
D27*
%TO.C,C7*%
X115500000Y-114137500D03*
X115500000Y-112062500D03*
%TD*%
D20*
%TO.C,R19*%
X69800000Y-84887500D03*
X69800000Y-82887500D03*
%TD*%
D13*
%TO.C,R14*%
X69950000Y-116350000D03*
X71950000Y-116350000D03*
%TD*%
D19*
%TO.C,SW2*%
X122174000Y-99998000D03*
X122174000Y-96598000D03*
%TD*%
D30*
%TO.C,R10*%
X141208000Y-80010000D03*
X139208000Y-80010000D03*
%TD*%
D13*
%TO.C,R3*%
X139150000Y-90650000D03*
X141150000Y-90650000D03*
%TD*%
D20*
%TO.C,R13*%
X147828000Y-82811500D03*
X147828000Y-80811500D03*
%TD*%
D37*
%TO.C,D7*%
X147978000Y-85486500D03*
X147978000Y-87536500D03*
%TD*%
%TO.C,D6*%
X145034000Y-80001000D03*
X145034000Y-82051000D03*
%TD*%
D40*
%TO.C,Q1*%
X127425000Y-98627500D03*
X128075000Y-98627500D03*
X128725000Y-98627500D03*
X129375000Y-98627500D03*
X129375000Y-92867500D03*
X128725000Y-92867500D03*
X128075000Y-92867500D03*
X127425000Y-92867500D03*
%TD*%
M02*
